<?xml version="1.0" encoding="UTF-8"?>
<!DOCTYPE svg PUBLIC "-//W3C//DTD SVG 1.0//EN" "http://www.w3.org/TR/2001/REC-SVG-20010904/DTD/svg10.dtd">
<!-- Creator: CorelDRAW -->
<svg xmlns="http://www.w3.org/2000/svg" xml:space="preserve" width="133.748mm" height="83.1509mm" version="1.0" style="shape-rendering:geometricPrecision; text-rendering:geometricPrecision; image-rendering:optimizeQuality; fill-rule:evenodd; clip-rule:evenodd"
viewBox="0 0 13366.88 8310.2"
 xmlns:xlink="http://www.w3.org/1999/xlink"
 xmlns:xodm="http://www.corel.com/coreldraw/odm/2003">
 <defs>
  <style type="text/css">
   <![CDATA[
    .fil0 {fill:#63448A;fill-rule:nonzero}
   ]]>
  </style>
 </defs>
 <g id="Camada_x0020_1">
  <metadata id="CorelCorpID_0Corel-Layer"/>
  <g id="_1540770103456">
   <path class="fil0" d="M2774.51 6726.44c0,507.49 -95.67,641.54 -291.56,631.98l0 43.09 1015.93 0 0 -43.09c-195.88,9.56 -291.56,-124.49 -291.56,-631.98l0 -1919.84c0,-507.49 95.67,-646.35 291.56,-636.77l0 -43.08 -724.37 0 -1052.39 3155.07 -1043.3 -3155.07 -678.82 0 0 43.08c195.88,-9.58 291.59,129.27 291.59,636.77l0 1919.84c0,507.49 -95.7,641.54 -291.59,631.98l0 43.09 665.16 0 0 -43.09c-195.9,9.56 -291.59,-124.49 -291.59,-631.98l0 -2130.51 929.39 2805.58 464.73 0 1006.82 -3016.23 0 2341.15zm7280.21 -5239.17c58.69,0 175.89,-3.06 239.34,-11.8l73.75 -9.1c26.07,-3.12 48.28,-6.84 72.08,-10.73 14.23,-2.34 20.68,-4.01 36.28,-6.49 10.06,-1.62 20.75,-5.29 32.77,-7.29 22.44,-3.74 45.92,-10.57 66.8,-16.06l65.14 -17.69c42.39,-13.35 82.35,-30.2 123.55,-44.75 67.42,-23.85 159.16,-76.98 217.32,-114.01 7.88,-5.01 16.37,-11.34 25.28,-17.47l47.6 -35.21c30.36,-26.85 22.85,-22.87 92.26,48.1l10.25 11.13c0.39,0.39 0.96,0.94 1.34,1.32l93.99 95.72c8.69,10.32 18.74,15.72 27.07,26.35l39.61 37.87c5.97,6 5.06,8.32 12.05,14.69 6.36,5.79 7.84,5.72 14.41,12.3l6.7 6.65c4.33,4.74 2.37,3.33 5.88,7.5 6.63,7.95 7.89,5.83 14.39,12.32 6,5.95 5.09,8.25 12.07,14.64l118.25 119.57c-3.83,16.31 -28.15,35.39 -38.97,49.21 -39.2,50.09 -71.63,100.21 -104.22,154.96 -6.13,10.34 -9.84,19.21 -15.33,30.09l-14.25 28.55c-14.55,29.59 -28.54,58.84 -39.04,89.15 -18.66,53.77 -39.09,108.75 -52.04,164.38l-40.32 218.87c-2.82,27.48 -5.28,53.84 -8.06,80.12l-7.05 237.51c0.12,8.72 1.28,-3.99 1.3,7.89 0,18.08 -13.8,30.29 -28.96,35.16 -56.49,18.18 -113.99,32.46 -169.52,52.27l-73.13 23.05c-32.98,9.81 -63.13,19.2 -95.72,29.86l-146.8 45.57c-10.5,2.98 -14.78,4.44 -24.67,7.4l-194.25 59.55c-9.61,2.74 -11.04,4.29 -21.93,7.48l-193.57 60.28c-16.33,4.9 -32.02,9.31 -49.1,14.98l-122.62 37.72c-9.04,3.24 -11.71,4.28 -22.17,7.22l-353.09 109.17c-4.77,1.25 -7.23,2.39 -11.84,4.19 -8.32,3.21 -13.07,5.52 -23.63,5.77 3.88,-16.65 16.58,-20.89 27.44,-31.36l59.94 -57.63c36.12,-30.17 111.07,-114.05 148.51,-145.36l180.24 -172.46c39.13,-39.22 80.89,-75.79 119.66,-115.46l224.9 -215.97c22.64,-18.93 41.39,-42.46 63.2,-62.38 0.39,-0.36 0.98,-0.91 1.39,-1.27 0.41,-0.37 0.96,-0.92 1.37,-1.3l98.36 -94.01c6.45,-6.66 6.9,-9.63 20.2,-8.41 44.89,4.17 82.17,1.89 123.56,-18.84 21.2,-10.61 38.88,-24.37 55.43,-40.75 60.85,-60.16 70.54,-145.48 37.29,-223.03 -69.03,-161.14 -298.6,-155.03 -368.04,1.82 -17.19,38.88 -24.08,89.37 -10.31,133.39 18.51,59.27 28.51,38.38 -11.68,77.05l-52.41 51.79c-2.8,2.94 -2.8,3.62 -6.47,6.9 -6.33,5.68 -9.29,6.79 -15.92,13.46l-277.83 267.26c-43.31,38.15 -105.18,108.82 -150.18,146.37l-10.1 8.58c-5.63,5.19 -9.29,9.22 -14.74,14.66l-203.13 197.64c-5.46,5.49 -9.6,7.06 -16.01,13.39l-146.84 141.71c-7.48,7.22 -5.15,9.01 -16.74,9.97 1.05,-13.07 9.95,-38.93 14.34,-52.43 5.88,-18.04 9.72,-33.8 15.35,-51.45 32.5,-101.62 60.97,-204.01 91.49,-306.64 10.57,-35.55 19.64,-67.82 30.13,-103.44 28.24,-95.88 66.5,-211.58 90.28,-305.16 2.78,-10.88 5.4,-13.87 8.5,-26.23 10.52,-42.14 26.17,-85.57 37.9,-127.76 4.9,-17.68 9.47,-31.75 14.49,-49.65l129.22 -434.52c39.7,-138.24 24.12,-116.44 108,-116.44zm1466.88 -643.91c0,27.21 4.6,43.72 23.3,62.17 27.6,27.21 69.51,31.11 100.78,11.13 12.16,-7.77 160.61,-158.97 174.5,-172.86 33.59,-33.59 65.34,-65.16 98.86,-98.84l24.38 -23.74c8.31,-10.04 16.12,-15.94 25.46,-25.28 30.13,-30.15 48.33,-61.31 29.2,-106.18 -9.31,-21.84 -39.56,-44.54 -65,-44.54 -41.34,0 -47.98,3.89 -80.82,36.73 -17.13,17.15 -32.3,32.3 -49.45,49.45l-258.7 259.63c-3.74,4.47 -7.72,9.04 -10.7,13.35 -6.84,9.85 -11.79,23.41 -11.79,38.97zm200.37 245.81c0,20.27 11.2,46.25 21.18,56.3 15.49,15.58 36.08,26.51 61.65,26.53 42.7,0 69.3,-38.15 99.13,-66.52 17.7,-16.83 13.58,-16.72 29.5,-29.29l64.04 -64.2c0.38,-0.41 0.93,-0.96 1.32,-1.37 0.38,-0.38 0.95,-0.93 1.34,-1.32l9.36 -9.35c0.39,-0.39 0.95,-0.94 1.34,-1.33l34.8 -34.66c8.99,-11.34 15.6,-14.57 25.73,-25.03 4.47,-4.61 7.2,-8.88 11.18,-12.87l89.99 -89.03c40.27,-37.19 50.31,-88.46 11.06,-126.68 -26.8,-26.09 -59.64,-31.63 -93.92,-14.96 -14.89,7.25 -26.68,22.28 -39.69,35.12l-69.92 69.01c-2.17,2.14 -4.24,4.72 -6.34,7.04l-89.53 89.49c-6.54,5.53 -7.18,3.8 -13.05,10.99l-75.02 77.3c-11.61,12.7 -22.1,18.88 -26.53,24.23 -18.84,22.76 -17.79,16.79 -25.22,25.53 -4.14,4.9 -7.88,10.2 -10.92,15.78 -5.04,9.22 -11.5,26.3 -11.5,39.29zm470.25 3414c-10.52,-1.18 -66.55,-24.69 -90.83,-31.4l-98.2 -24.72c-15.29,-3.28 -35.08,-6.47 -51.68,-9.76 -32.77,-6.54 -36.01,-4.01 -54.43,-7.02l-109.65 -11.93c-29.19,-0.05 -48.85,-2.69 -78.82,-2.69l-160.38 -0.07c-17.08,-0.07 -21.82,2.67 -37.24,2.85l-114.85 5.38c-21.96,1.77 -50.31,7.42 -72.22,7.93 -50.13,1.18 -96.93,10.83 -144.35,15.98l-71.06 9.09c-23.67,3.44 -45.84,6.9 -69.01,11.15 -13.12,2.42 -21.62,2.71 -35.19,4.88 -93.85,14.89 -211.97,35.48 -302.95,57.76 -49.78,12.18 -146.55,26.28 -200.71,37.08 -92.67,18.47 -188.03,28.21 -282.54,38.08 -21.82,2.28 -50.06,5.61 -72.7,7.47 -23.91,1.99 -53.36,-2.32 -76.61,0.89 -22.89,3.15 -48.07,-0.86 -75.57,-0.73 -48.07,0.25 -123.1,-10.49 -160.36,-40.01 -18.13,-14.35 -15.83,-36.9 -9.74,-57.99 22.23,-77.14 76.58,-131.93 137.22,-180.72l106.97 -93.45c7.86,-9.51 10.11,-12.5 18.84,-21.23 31.88,-31.97 59.96,-81.69 72.77,-127.62 17.05,-61.1 15.07,-137.45 -27.53,-188.9 -12.48,-15.07 -25.64,-28 -40.73,-39.42 -26.12,-19.79 -75,-40.64 -113.39,-46.92 -66.07,-10.81 -81.78,-10.65 -149.68,-10.65 -87.57,0 -202.46,10.4 -287.98,29.95 -9.97,2.28 -22.48,3.19 -34.6,5.49l-99.75 20.47c-54.39,11.23 -109.73,22.28 -163.7,36.7 -63.95,17.05 -127.2,29.3 -190.33,47.46l-132.78 27.53c-91.42,15.32 -87.07,16.28 -183.65,16.76 -26.71,0.14 -50.4,-3.87 -69.81,-10.34 -9.83,-3.3 -20.38,-7.72 -29.44,-13.29 -3.92,-11.57 -7.77,-23.28 -11.54,-35.08 2.27,-3.6 4.9,-6.9 7.4,-9.97 49.67,-60.69 115.4,-107.8 180.37,-150.95 33.19,-22.05 65.41,-46.55 100.3,-65.34l430.18 -232.43c9.88,-4.74 17.42,-8.48 26.27,-13.83 20.75,-12.52 54.44,-23.48 81.9,-41 13.78,-8.76 10.06,-10.47 19.7,-20.38 14.39,-14.83 209.01,-68.42 249.63,-81.67l187.3 -58.53c62.61,-21.23 126.95,-38.34 189.38,-59.11l126.95 -38.72c21.23,-6.49 40.49,-13.34 62.83,-19.97 43.81,-13.03 117.22,-38.72 157.12,-48.63 53.3,-13.2 104.57,-32.75 157.43,-48.32 22,-6.5 41.06,-13.07 62.81,-20l377.79 -116.49c21.5,-7.07 40.58,-13.96 62.44,-20.41 46.44,-13.66 114.46,-29.86 153.44,-54.98 23.87,-15.4 46.75,-37.13 60.46,-62.42 46.8,-86.53 16.05,-128.56 28.26,-217.55 2.78,-20.27 2.73,-56.53 4.46,-78.34 4.15,-51.79 6.68,-99 14.62,-151.04l12.28 -70.58c7.74,-32.61 13.14,-67.62 22.5,-100.41 3.21,-11.3 4.92,-20.59 8.5,-31.54 3.85,-11.78 6.5,-21.12 9.97,-32.8 3.72,-12.45 6.38,-18.83 9.79,-30.29 23.71,-79.91 66.69,-153.25 106.95,-224.35 17.06,-30.15 47.78,-69.1 71.38,-94.29 52.14,-55.59 34.39,-49.64 94.83,10.68 48.31,48.21 46.73,64.09 77.96,39.22l190.1 -146.55c7.7,-6.02 13.14,-10.7 20.64,-16.76l104.17 -80.21c14.85,-11 27.85,-22.07 41.95,-32.84l42.44 -32.39c14.57,-10.97 26.96,-21.61 41.93,-32.88l84.66 -64.98c14.07,-12.16 27.34,-21.57 41.75,-33.07l82.8 -64.13c71.22,-53.06 139.68,-110.12 210.7,-163.38l84.19 -65.43c7.84,-6.47 13.71,-9.61 21.42,-15.99 60.69,-50.28 124.8,-96.08 186.79,-144.52 14.53,-11.34 27.03,-21.64 41.98,-32.82 20.98,-15.71 89.9,-65.86 103.86,-83.19 35.66,-44.23 12.95,-106.68 -26.78,-124.08 -49.4,-21.62 -77.93,1.46 -106.91,25.12l-251.89 194.34c-47.3,37.04 -102.21,76.26 -147.26,114.58 -7.79,6.61 -11.93,10.52 -20.63,16.76 -14.76,10.54 -29.29,20.73 -42.32,32.5l-40.91 31.22c-14.78,11.62 -27.05,21.73 -42.02,32.82 -8.3,6.15 -13.01,10.47 -20.98,16.42l-63.13 49.08c-14.3,11.77 -28.03,20.48 -42.52,32.27l-166.86 129.72c-7.34,5.49 -14.37,10.27 -21.42,16.01l-188.18 145.78c-26.01,19.47 -107.75,90.67 -126.7,95.08 -16.13,-10.81 -27.17,-28.33 -42.72,-40.09 -25.92,-19.58 -97.46,-96.1 -123.61,-122.23l-82.83 -80.17c-26.27,-26.27 -54.27,-57.46 -81.51,-81.46l-42.72 -40.09c-33.09,-33.41 -85.06,-81.66 -115.23,-114.55 -0.53,-0.57 -2.01,-2.23 -2.53,-2.8l-25.15 -25.62c-8.07,-7.47 -13.09,-10.24 -21.41,-18.68 -33.25,-33.61 -70.4,-66.41 -101.71,-101.34 -4.68,-5.22 -18.59,-13.37 -20.53,-19.57 -4.17,-13.25 37.61,-55.37 45.05,-64.49l379.41 -459.55c4.08,-5.54 7.02,-9.72 11.75,-14.99 8.85,-9.9 15.18,-20.02 24,-29.42l86.43 -103.26c30.02,-38.47 121.01,-136.56 127.52,-169.06 12.5,-62.42 -43.52,-115.44 -107.21,-93.85 -36.03,12.21 -77.06,80.76 -105.4,111.02 -10.04,10.73 -16.01,19.86 -25.45,30.66l-72.33 87.98c-5.11,6.29 -8.88,9.03 -13.82,15.57 -3.58,4.72 -7.25,10.41 -11.41,15.31 -5.15,5.99 -7.84,7.97 -12.59,14.12l-24.74 28.71c-5.97,6.79 -5.29,9.24 -10.72,15.97 -4.4,5.42 -8.52,8.13 -13.03,13.71l-354.55 430.97c-4.65,5.72 -7.71,7.79 -12.64,14.09 -4.83,6.15 -7.59,9.52 -11.77,14.92 -7.71,9.88 -16.29,19.36 -24.06,29.4 -5.01,6.45 -8.72,9.35 -13.8,15.57l-35.82 44.34c-15.81,20.32 -34.6,38.68 -47.21,60.92l94.14 95.56c-7.29,10.88 -17.15,16.9 -28.26,25.17l-124.94 83.49c-12.53,6.68 -20.3,11.57 -32.93,17.81 -70.43,34.85 -144.24,65.55 -219.98,87.28 -14.42,4.14 -27.06,7.08 -42.21,11.24 -11.96,3.29 -27.21,6.73 -40.32,10.45 -32.95,9.45 -92.53,16.97 -130.52,24.45 -13.59,2.68 -28.85,3.35 -45.7,5.05 -121.62,12.25 -149.61,15.6 -291.68,15.6 -43.63,0 -59.38,-1 -92.01,12.19 -88.87,35.84 -105.59,93.06 -129.2,178.08l-41.86 142.5c-2.49,7.39 -4.43,10.95 -6.11,17.95 -2.74,11.27 -3.37,11.47 -6.04,20.68l-170.68 574.77c-15.87,54.06 -47.18,150.38 -58.85,197.63 -13.46,54.46 -32.2,105.31 -47.26,158.52l-89.25 300.8c-2.1,6.98 -3.69,11.46 -5.7,18.36 -1.94,6.65 -3.19,13.5 -5.7,21.02l-29.33 98.94c-19.77,64.56 -36.99,133.43 -58.85,197.63 -7.39,21.64 -11.59,63.11 -31.2,73l-269.97 141.5c-84.63,43.77 -283.68,163.86 -346.8,219.66 -8.76,7.77 -18.7,14.64 -28.46,22.3 -11.73,9.17 -23.74,18.91 -35.6,29.17 -73.38,-294.8 -120.07,-635.92 -185.64,-952.16 -142.23,-685.73 -324.54,-1003.6 -1086.9,-1003.6 -396.65,0 -782.97,88.39 -1086.88,233.99l164.82 436.79c113.32,-156.01 355.83,-399.6 597.54,-509.61 386.65,-175.93 728.27,50.43 509.98,488.82 -255.58,513.18 -1233.12,660.3 -1277.49,1435.22 -27.69,483.47 319.35,738.41 767.51,738.41 731.46,0 994.17,-582.42 1040.54,-1201.21 41.2,244.4 91.56,484.06 164.82,686.41 101.82,281.2 252.38,514.81 587.22,514.81 149.37,0 293.61,-62.4 370.88,-213.19l-36.05 -31.2c-123.63,103.99 -265.76,-11.82 -329.69,-109.21 -22.26,-33.91 -42.84,-70.65 -61.97,-109.71 70.12,4.99 148.78,-5.29 212.98,-16.1 11.98,-2.03 31.25,-4.67 43.16,-7.61 7.52,-1.85 14.05,-4.06 21.73,-4.99 11.84,-1.46 12.7,-0.87 23.14,-3.58 13.05,-3.37 26.78,-5.22 42.12,-8.65l417.68 -98 267.19 -42.72c67.64,-6.54 176.62,-14.26 234.9,11.38 6.45,2.85 26.59,15.06 29.92,20.85 16.22,28.07 -13.75,77.72 -28.99,96.69 -4.1,5.11 -7.38,7.36 -11.54,12.53 -14.62,18.2 -34.78,37.19 -53.05,51.15 -6.24,4.79 -8.08,7.43 -14.14,12.57l-99.13 85.22c-24.67,24.74 -48.31,49.76 -67.87,79.07 -74.62,111.78 -120.85,265.8 6.31,361.37 41.52,31.2 94.51,51.09 145.78,59.94 112.52,19.47 270.99,17.31 386.3,2.21 12.87,-1.69 31.91,-2.69 46.07,-4.72l395.78 -66.43c71.88,-14.41 144.71,-30.36 216.98,-42.21l133.04 -21.93c61.56,-6.52 119.3,-18.36 181.04,-24.69 14.16,-1.46 30.99,-3.76 47.34,-6.09l188.12 -17.6c16.49,-0.5 33.87,1.36 49.74,-1.05 25.17,-3.81 180.03,-5.4 201.54,-4.24 11.74,0.64 11.15,2.42 23.94,2.78 7.79,0.21 16.28,-0.57 24,0.07l95.52 8.67c57.44,7.73 117.79,18.65 172.38,33.34 108.66,29.22 217.45,92.66 262.83,199.42 15.46,36.39 21.43,78.45 22.05,120.27 -135.92,-93.4 -322.2,-138.68 -587.59,-138.68 -350.82,0 -692.49,81.38 -961.29,215.43l145.8 402.17c100.23,-143.64 314.34,-368.65 528.46,-469.2 341.69,-162.77 646.94,47.89 451.03,450.06 -223.24,473.96 -1088.84,608.04 -1129.86,1321.39 -22.78,445.24 282.47,679.85 678.82,679.85 646.94,0 879.29,-536.21 920.31,-1105.95 36.42,225.02 81.99,445.25 145.75,631.96 91.15,258.54 223.24,473.99 519.38,473.99 132.13,0 259.7,-57.47 328.02,-196.3l-31.88 -28.71c-109.37,95.74 -236.92,-9.59 -291.56,-100.55 -195.93,-306.41 -241.49,-861.77 -341.72,-1350.12 -54.16,-278.28 -116.28,-490.63 -226.45,-641.17 19.86,-99.89 23.37,-192.31 -6.47,-293.66 -24.76,-84.04 -80.53,-156.17 -147.97,-210.08 -24.78,-19.79 -51.85,-36.33 -79.64,-51.27 -7.22,-3.87 -7.93,-5.28 -15.14,-8.9 -6.29,-3.16 -13.37,-6.13 -18.36,-8.34l-15.48 -9.24zm-8338.06 -1628.35l0 1138.81c0,343.22 139.08,603.22 509.97,603.22 381.16,0 865.37,-291.2 1189.89,-598l0 244.4c0,208 61.83,353.6 293.61,353.6l499.66 0 0 -46.8c-216.33,10.4 -324.52,-124.79 -329.67,-629.2l-5.15 -2147.62c-139.08,202.79 -489.33,343.2 -788.12,343.2l0 46.8c221.48,-10.41 329.67,140.41 329.67,691.59l0 1014.02c-231.8,202.79 -571.78,468 -875.69,468 -206.02,-5.22 -360.57,-135.21 -360.57,-447.21l0 -2116.41c-139.09,202.79 -489.36,343.2 -793.26,343.2l0 46.8c221.51,-10.41 329.67,140.41 329.67,691.59zm4027.87 -223.6c83.2,342.94 66.25,821.42 -51.52,1159.6 -113.98,327.37 -432.81,639.97 -813.87,546.03 -293.66,-72.41 -378.34,-343.74 -324.52,-598 105.81,-499.7 663.47,-681.83 885.98,-1081.62 81.35,-146.18 128.79,-353.59 87.57,-525.2 103.04,135.19 170.91,311.86 216.36,499.2zm-7426.57 -25.73l-51.61 0 0 980.5c458.71,407.09 1043.57,602.05 1674.28,602.05 475.92,0 1014.91,-131.89 1295.86,-510.31 275.24,-378.45 263.75,-1009.18 -57.32,-1353.21 -487.38,-516.03 -1462.14,-441.51 -2081.42,-768.33 -401.37,-212.15 -470.18,-561.92 -183.49,-860.08 292.43,-292.43 711,-366.97 1095.2,-303.89 493.09,80.26 825.67,401.36 1209.84,957.55l212.15 -556.18c-412.84,-338.29 -997.69,-527.51 -1588.29,-527.51 -326.82,0 -653.67,68.8 -934.61,206.41 -303.91,154.82 -642.2,447.25 -642.2,848.61 0,407.12 372.71,647.94 682.33,779.83 510.32,217.88 1129.59,235.08 1611.22,458.7 286.69,131.87 533.26,418.58 516.06,762.59 -22.94,579.14 -665.14,756.87 -1106.65,762.61 -762.61,5.75 -1439.2,-596.31 -1651.35,-1479.33zm5767.87 4579.73l-31.89 -28.71c-109.37,95.74 -236.92,-9.59 -291.58,-100.55 -195.91,-306.41 -241.46,-861.77 -341.69,-1350.12 -123.04,-631.97 -287.03,-924.02 -961.3,-924.02 -350.8,0 -692.49,81.38 -961.27,215.43l145.78 402.17c100.23,-143.64 314.36,-368.65 528.46,-469.2 341.72,-162.77 646.94,47.89 451.05,450.06 -223.24,473.96 -1088.86,608.04 -1129.86,1321.39 -22.78,445.24 282.47,679.85 678.8,679.85 646.94,0 879.31,-536.21 920.31,-1105.95 36.44,225.02 81.99,445.25 145.78,631.96 91.12,258.54 223.23,473.99 519.35,473.99 132.13,0 259.7,-57.47 328.05,-196.3zm-1111.64 -1613.43c72.88,315.98 59.24,756.44 -45.55,1067.64 -100.23,301.62 -382.7,588.88 -719.84,502.7 -259.68,-67.03 -332.58,-315.97 -287.03,-550.58 95.67,-459.62 587.72,-627.2 783.63,-995.83 72.88,-134.05 113.87,-325.56 77.45,-483.55 91.11,124.46 150.34,287.25 191.34,459.61zm1808.68 1134.66l0 -1196.91c81.99,-138.86 209.58,-320.78 355.35,-445.27 337.14,-296.83 637.81,38.31 824.61,335.15l145.77 -402.17c-141.23,-124.47 -323.45,-215.43 -510.24,-215.43 -346.25,0 -624.14,282.45 -815.5,569.73l0 -569.73c-123.01,186.71 -432.82,315.98 -701.6,315.98l0 43.08c195.88,-9.56 291.56,129.27 291.56,636.77l0 928.79c0,507.49 -95.67,641.54 -291.56,631.98l0 43.09 993.19 0 0 -43.09c-195.93,9.56 -291.59,-124.49 -291.59,-631.98zm3448.78 -1709.19c-268.78,-143.63 -551.24,-215.43 -824.6,-215.43 -674.27,0 -1261.97,584.09 -1261.97,1302.24 0,397.37 173.13,756.43 441.92,991.04 214.12,191.52 492.02,306.42 792.71,306.42 583.16,0 1066.07,-421.31 1202.74,-986.27l-41 0c-154.89,469.18 -501.14,746.88 -865.6,789.97 -583.15,67.03 -1002.29,-445.24 -1125.3,-991.04 -127.56,-569.73 54.66,-1110.75 446.48,-1254.37 387.23,-143.64 738.04,14.35 1079.72,440.47l154.89 -383.02zm1886.11 574.53c72.91,315.98 59.25,756.44 -45.54,1067.64 -100.23,301.62 -382.7,588.88 -719.85,502.7 -259.65,-67.03 -332.57,-315.97 -287,-550.58 95.67,-459.62 587.72,-627.2 783.61,-995.83 72.88,-134.05 113.89,-325.56 77.45,-483.55 91.1,124.46 150.34,287.25 191.33,459.61z"/>
   <path class="fil0" d="M3528.27 8303.73l0 -377.81 163.52 0c33.85,0 62.97,5.49 87.46,16.46 24.46,10.98 43.33,26.71 56.67,47.23 13.29,20.5 19.97,44.98 19.97,73.41 0,28.06 -6.68,52.34 -19.97,72.86 -13.33,20.5 -32.21,36.26 -56.67,47.21 -24.49,10.97 -53.61,16.47 -87.46,16.47l-114.94 0 38.86 -39.41 0 143.58 -87.44 0zm87.44 -133.85l-38.86 -41.57 110.1 0c26.98,0 47.14,-5.76 60.44,-17.26 13.32,-11.52 19.97,-27.53 19.97,-48.03 0,-20.89 -6.65,-37.08 -19.97,-48.58 -13.3,-11.52 -33.46,-17.26 -60.44,-17.26l-110.1 0 38.86 -41.57 0 214.26zm382.86 133.85l0 -377.81 285.5 0 0 70.17 -198.61 0 0 237.47 205.63 0 0 70.17 -292.52 0zm80.41 -157.61l0 -68 181.88 0 0 68 -181.88 0zm362.35 157.61l0 -377.81 161.39 0c52.52,0 93.36,12.15 122.51,36.44 29.15,24.28 43.72,57.85 43.72,100.66 0,28.06 -6.68,52.25 -19.97,72.59 -13.33,20.34 -32.21,35.89 -56.67,46.68 -24.49,10.79 -53.61,16.19 -87.46,16.19l-114.94 0 38.86 -38.33 0 143.58 -87.44 0zm240.19 0l-94.47 -137.08 93.38 0 95.54 137.08 -94.44 0zm-152.75 -133.85l-38.86 -41.02 110.1 0c26.98,0 47.14,-5.86 60.44,-17.54 13.32,-11.7 19.97,-27.8 19.97,-48.3 0,-20.89 -6.65,-37.08 -19.97,-48.58 -13.3,-11.52 -33.46,-17.26 -60.44,-17.26l-110.1 0 38.86 -41.57 0 214.26zm514 140.32c-30.22,0 -59.17,-4.03 -86.88,-12.14 -27.69,-8.09 -50.02,-18.6 -66.92,-31.56l29.68 -65.84c16.19,11.5 35.34,20.95 57.48,28.33 22.12,7.38 44.53,11.06 67.19,11.06 17.29,0 31.22,-1.71 41.84,-5.12 10.61,-3.45 18.43,-8.21 23.49,-14.31 5.03,-6.13 7.54,-13.13 7.54,-21.06 0,-10.07 -3.94,-18.09 -11.86,-24.01 -7.93,-5.95 -18.36,-10.8 -31.29,-14.58 -12.96,-3.78 -27.26,-7.38 -42.91,-10.79 -15.67,-3.42 -31.31,-7.66 -46.96,-12.68 -15.64,-5.04 -29.94,-11.52 -42.9,-19.43 -12.96,-7.93 -23.48,-18.36 -31.56,-31.31 -8.12,-12.94 -12.16,-29.5 -12.16,-49.65 0,-21.6 5.85,-41.3 17.56,-59.11 11.68,-17.81 29.31,-32.02 52.88,-42.63 23.58,-10.61 53.16,-15.92 88.78,-15.92 23.76,0 47.14,2.78 70.17,8.37 23.03,5.58 43.36,13.96 60.99,25.1l-26.99 66.39c-17.63,-10.07 -35.25,-17.54 -52.88,-22.39 -17.65,-4.88 -34.92,-7.3 -51.81,-7.3 -16.93,0 -30.77,1.99 -41.57,5.93 -10.79,3.96 -18.54,9.08 -23.21,15.39 -4.7,6.29 -7.02,13.58 -7.02,21.87 0,9.7 3.94,17.54 11.86,23.46 7.93,5.95 18.36,10.7 31.31,14.3 12.94,3.6 27.24,7.2 42.91,10.79 15.64,3.61 31.29,7.75 46.93,12.41 15.65,4.7 29.95,10.98 42.91,18.91 12.95,7.91 23.48,18.36 31.58,31.29 8.09,12.96 12.14,29.33 12.14,49.12 0,21.23 -5.95,40.66 -17.81,58.29 -11.89,17.63 -29.61,31.84 -53.18,42.63 -23.55,10.79 -53.34,16.19 -89.33,16.19zm484.34 0c-29.86,0 -57.49,-4.85 -82.83,-14.55 -25.38,-9.72 -47.33,-23.4 -65.87,-41.05 -18.51,-17.62 -32.91,-38.31 -43.15,-62.05 -10.27,-23.74 -15.4,-49.65 -15.4,-77.71 0,-28.07 5.13,-53.97 15.4,-77.72 10.24,-23.76 24.74,-44.43 43.43,-62.06 18.72,-17.63 40.67,-31.31 65.84,-41.02 25.19,-9.72 52.54,-14.58 82.05,-14.58 29.86,0 57.28,4.86 82.31,14.58 25.01,9.7 46.75,23.39 65.29,41.02 18.54,17.63 33,38.24 43.45,61.78 10.43,23.58 15.65,49.58 15.65,78 0,28.06 -5.22,54.05 -15.65,77.98 -10.45,23.94 -24.92,44.61 -43.45,62.06 -18.54,17.47 -40.29,31.04 -65.29,40.77 -25.04,9.7 -52.27,14.55 -81.78,14.55zm-0.53 -74.48c16.9,0 32.45,-2.87 46.66,-8.62 14.21,-5.77 26.72,-14.03 37.52,-24.83 10.79,-10.79 19.17,-23.58 25.1,-38.34 5.95,-14.75 8.9,-31.1 8.9,-49.1 0,-17.99 -2.96,-34.36 -8.9,-49.12 -5.93,-14.76 -14.21,-27.51 -24.83,-38.31 -10.61,-10.79 -23.12,-19.09 -37.51,-24.83 -14.39,-5.76 -30.04,-8.65 -46.94,-8.65 -16.92,0 -32.47,2.9 -46.68,8.65 -14.21,5.74 -26.71,14.03 -37.52,24.83 -10.79,10.79 -19.17,23.55 -25.1,38.31 -5.95,14.76 -8.9,31.13 -8.9,49.12 0,17.63 2.96,33.91 8.9,48.83 5.93,14.94 14.21,27.81 24.83,38.61 10.61,10.79 23.12,19.06 37.51,24.83 14.39,5.76 30.04,8.62 46.96,8.62zm353.17 68.01l0 -377.81 72.31 0 222.92 272.02 -35.1 0 0 -272.02 86.37 0 0 377.81 -71.79 0 -223.45 -272.02 35.1 0 0 272.02 -86.36 0zm467.07 0l168.37 -377.81 86.36 0 168.94 377.81 -91.76 0 -138.17 -333.53 34.55 0 -138.7 333.53 -89.6 0zm84.19 -80.96l23.22 -66.39 194.29 0 23.76 66.39 -241.26 0zm459.51 80.96l0 -377.81 87.43 0 0 306.57 189.44 0 0 71.24 -276.87 0zm406.62 0l0 -377.81 87.43 0 0 377.81 -87.43 0zm233.37 0l0 -56.67 233.69 -281.74 10.79 31.86 -240.18 0 0 -71.26 317.88 0 0 56.69 -233.14 281.71 -10.79 -31.83 252.04 0 0 71.24 -330.3 0zm417.39 0l168.37 -377.81 86.36 0 168.94 377.81 -91.76 0 -138.17 -333.53 34.55 0 -138.7 333.53 -89.6 0zm84.19 -80.96l23.22 -66.39 194.29 0 23.76 66.39 -241.26 0zm459.51 80.96l0 -377.81 171.63 0c41.02,0 77.18,7.83 108.48,23.48 31.31,15.67 55.78,37.51 73.41,65.59 17.62,28.05 26.43,61.33 26.43,99.84 0,38.13 -8.81,71.34 -26.43,99.57 -17.63,28.24 -42.1,50.2 -73.41,65.84 -31.29,15.65 -67.46,23.49 -108.48,23.49l-171.63 0zm87.43 -71.79l79.87 0c25.19,0 47.05,-4.76 65.59,-14.3 18.52,-9.52 32.91,-23.12 43.15,-40.75 10.27,-17.63 15.4,-38.33 15.4,-62.06 0,-24.12 -5.13,-44.88 -15.4,-62.33 -10.24,-17.47 -24.64,-30.95 -43.15,-40.5 -18.54,-9.51 -40.41,-14.3 -65.59,-14.3l-79.87 0 0 234.24zm622.5 78.25c-29.85,0 -57.49,-4.85 -82.83,-14.55 -25.38,-9.72 -47.32,-23.4 -65.86,-41.05 -18.52,-17.62 -32.91,-38.31 -43.16,-62.05 -10.26,-23.74 -15.39,-49.65 -15.39,-77.71 0,-28.07 5.13,-53.97 15.39,-77.72 10.25,-23.76 24.74,-44.43 43.43,-62.06 18.72,-17.63 40.68,-31.31 65.84,-41.02 25.19,-9.72 52.54,-14.58 82.06,-14.58 29.85,0 57.28,4.86 82.3,14.58 25.01,9.7 46.76,23.39 65.3,41.02 18.54,17.63 33,38.24 43.45,61.78 10.42,23.58 15.64,49.58 15.64,78 0,28.06 -5.22,54.05 -15.64,77.98 -10.45,23.94 -24.92,44.61 -43.45,62.06 -18.54,17.47 -40.3,31.04 -65.3,40.77 -25.03,9.7 -52.27,14.55 -81.78,14.55zm-0.52 -74.48c16.9,0 32.45,-2.87 46.66,-8.62 14.21,-5.77 26.71,-14.03 37.51,-24.83 10.79,-10.79 19.18,-23.58 25.1,-38.34 5.95,-14.75 8.9,-31.1 8.9,-49.1 0,-17.99 -2.96,-34.36 -8.9,-49.12 -5.92,-14.76 -14.21,-27.51 -24.82,-38.31 -10.61,-10.79 -23.12,-19.09 -37.52,-24.83 -14.39,-5.76 -30.03,-8.65 -46.93,-8.65 -16.92,0 -32.48,2.9 -46.69,8.65 -14.21,5.74 -26.71,14.03 -37.51,24.83 -10.79,10.79 -19.18,23.55 -25.1,38.31 -5.95,14.76 -8.9,31.13 -8.9,49.12 0,17.63 2.96,33.91 8.9,48.83 5.92,14.94 14.21,27.81 24.83,38.61 10.6,10.79 23.12,19.06 37.51,24.83 14.39,5.76 30.04,8.62 46.96,8.62zm477.29 74.48c-30.22,0 -59.18,-4.03 -86.89,-12.14 -27.69,-8.09 -50.01,-18.6 -66.91,-31.56l29.67 -65.84c16.19,11.5 35.35,20.95 57.49,28.33 22.12,7.38 44.52,11.06 67.18,11.06 17.29,0 31.23,-1.71 41.85,-5.12 10.61,-3.45 18.42,-8.21 23.48,-14.31 5.04,-6.13 7.54,-13.13 7.54,-21.06 0,-10.07 -3.94,-18.09 -11.86,-24.01 -7.93,-5.95 -18.36,-10.8 -31.29,-14.58 -12.96,-3.78 -27.26,-7.38 -42.9,-10.79 -15.67,-3.42 -31.32,-7.66 -46.96,-12.68 -15.65,-5.04 -29.95,-11.52 -42.9,-19.43 -12.96,-7.93 -23.49,-18.36 -31.57,-31.31 -8.11,-12.94 -12.16,-29.5 -12.16,-49.65 0,-21.6 5.86,-41.3 17.56,-59.11 11.68,-17.81 29.31,-32.02 52.89,-42.63 23.57,-10.61 53.15,-15.92 88.77,-15.92 23.76,0 47.15,2.78 70.17,8.37 23.03,5.58 43.36,13.96 60.99,25.1l-26.98 66.39c-17.63,-10.07 -35.26,-17.54 -52.89,-22.39 -17.65,-4.88 -34.91,-7.3 -51.81,-7.3 -16.92,0 -30.77,1.99 -41.57,5.93 -10.79,3.96 -18.54,9.08 -23.21,15.39 -4.69,6.29 -7.02,13.58 -7.02,21.87 0,9.7 3.94,17.54 11.86,23.46 7.93,5.95 18.36,10.7 31.32,14.3 12.93,3.6 27.23,7.2 42.9,10.79 15.65,3.61 31.29,7.75 46.94,12.41 15.64,4.7 29.94,10.98 42.9,18.91 12.96,7.91 23.49,18.36 31.59,31.29 8.09,12.96 12.13,29.33 12.13,49.12 0,21.23 -5.94,40.66 -17.81,58.29 -11.88,17.63 -29.6,31.84 -53.18,42.63 -23.55,10.79 -53.34,16.19 -89.32,16.19z"/>
  </g>
 </g>
</svg>
